<svg xmlns:svg="http://www.w3.org/2000/svg" xmlns="http://www.w3.org/2000/svg" version="1.1" x="0" y="0" width="1256.9" height="319.69" viewBox="0 0 1256.9 319.69" enable-background="new 0 0 1264 388" xml:space="preserve" id="svg3547"><style>.s0{fill:#f2f2f2;}</style><metadata id="metadata3696"/><defs id="defs3694"/><g id="Article" transform="matrix(1.0365642,0,0,1.0365642,-25.330519,-52.4346)"><g id="g3623"><path d="m182.42 244.67 16.23 108.47H139.7L130.59 292.2H92.67l-9.27 60.94H24.44L40.67 245.17 74.61 55.22h74.03l33.78 189.45zM138.87 66.81H84.39L52.09 247.16 37.85 341.55h35.6l9.27-60.94h57.8l9.11 60.94h35.6L171 246.66 138.87 66.81zM86.87 251.46 111.54 87.85 136.05 251.46H86.87zm35.77-11.59-11.09-74.19-11.26 74.19h22.36z" id="path3625" fill="#f2f2f2"/><path d="m226.8 55.22h71.21c1.33 0.11 2.26 0.17 2.82 0.17 45.48 0 68.23 21.92 68.23 65.74v43.22c0 27.93-11.7 45.71-35.11 53.32l53.49 135.46H323.52L285.26 240.04V353.14H226.81V55.22zm11.59 286.33h35.27V217.18l15.73-2.32 42.39 126.69h38.75L318.71 210.39c25.83-8.28 38.75-23.62 38.75-46.04v-43.22c0-36.1-18.88-54.15-56.64-54.15-0.77 0-1.82-0.05-3.15-0.17H238.39V341.55zm57.63-245.59c17.44 0 26.17 8.39 26.17 25.17v43.22c0 11.81-5.52 19.65-16.56 23.52-3.09 1.1-8.23 1.66-15.4 1.66H273.67V95.96h22.36zm-10.76 11.59v70.38h4.97c5.85 0 9.66-0.33 11.43-0.99 5.96-2.1 8.94-6.29 8.94-12.58v-43.22c0-9.05-4.86-13.58-14.57-13.58h-10.76z" id="path3627" fill="#f2f2f2"/><path d="m539.13 55.22v52.33H495.25V353.14H436.79V107.55H392.9V55.22H539.13zM404.5 66.81V95.96h43.89v245.59h35.27V95.96h43.88V66.81H404.5z" id="path3629" fill="#f2f2f2"/><path d="m569.77 55.22h58.46v297.92H569.77V55.22zm11.59 286.33h35.27V66.81H581.36V341.55z" id="path3631" fill="#f2f2f2"/><path d="m814.2 291.7c0 43.94-24.4 65.91-73.2 65.91-48.69 0-73.03-21.97-73.03-65.91V116.66c0-44.05 24.34-66.08 73.03-66.08 48.8 0 73.2 22.03 73.2 66.08v44.22H755.74v-44.22c0-9.05-4.86-13.63-14.57-13.74-9.83 0-14.74 4.58-14.74 13.75v175.04c0 9.05 4.86 13.58 14.57 13.58 9.82 0 14.74-4.53 14.74-13.58v-44.38h58.46v44.38zm-11.59-32.79h-35.27v32.79c0 16.78-8.78 25.17-26.33 25.17-17.44 0-26.16-8.39-26.16-25.17V116.66c0-16.89 8.78-25.34 26.33-25.34 17.44 0.11 26.17 8.56 26.17 25.34v32.62h35.27v-32.62c0-36.32-20.53-54.48-61.6-54.48-40.96 0-61.44 18.16-61.44 54.48v175.04c0 36.21 20.48 54.32 61.44 54.32 41.07 0 61.6-18.1 61.6-54.32v-32.79z" id="path3633" fill="#f2f2f2"/><path d="M852.29 353.14V55.22h58.46v245.59h74.69v52.33H852.29zM973.84 341.55V312.4H899.15V66.81H863.88V341.55h109.96z" id="path3635" fill="#f2f2f2"/><path d="m1013.58 55.22h133.15v52.33h-74.69v70.38h64.25v52.33h-64.25v70.55h74.69v52.33H1013.58V55.22zm11.59 286.33h109.96v-29.15h-74.69v-93.73h64.25V189.53H1060.45V95.96h74.69V66.81h-109.96V341.55z" id="path3637" fill="#f2f2f2"/></g><g id="g3639"><path d="m1236.17 55.33v12.57l-28.09 7.51h27.91l0.22 12.1H1170.63V74.93l26.92-7.14H1170.63V55.33h65.54zm-62.99 2.55v7.36h43.9l-43.9 11.66v8.05h60.41l-0.07-6.99h-44.88l44.99-12.02V57.88h-60.44z" id="path3641" fill="#f2f2f2"/><path d="m1194.49 128.45-23.86 3.57v-12.97l13.41-2v-8.34l-13.41-2.04v-12.97l23.75 3.57 41.79 7.47v16.29l-41.68 7.43zm39.13-9.58v-11.99l-39.67-7.1-20.77-3.13v7.83l13.41 2.04v12.72l-13.41 2v7.83l20.88-3.13 39.57-7.07zm-40.62-11.44 35.99 5.43-35.99 5.39v-10.82zm2.55 7.87 16.32-2.44-16.32-2.48v4.92z" id="path3643" fill="#f2f2f2"/><path d="m1236.17 165.76h-11.51v-9.65h-54.03v-12.86h54.03v-9.65h11.51v32.17zm-2.55-29.62h-6.41v9.65h-54.03v7.76h54.03v9.65h6.41v-27.07z" id="path3645" fill="#f2f2f2"/><path d="m1236.17 172.32v12.86h-27v6.45h27v12.86h-65.54v-12.86h27.03v-6.45h-27.03v-12.86h65.54zm-62.99 2.55v7.76h27.03v11.55h-27.03v7.76h60.44v-7.76h-27v-11.55h27v-7.76h-60.44z" id="path3647" fill="#f2f2f2"/><path d="m1194.49 245.44-23.86 3.57v-12.97l13.41-2v-8.34l-13.41-2.04v-12.97l23.75 3.57 41.79 7.47v16.29l-41.68 7.43zm39.13-9.58v-11.99l-39.67-7.1-20.77-3.13v7.83l13.41 2.04v12.72l-13.41 2v7.83l20.88-3.13 39.57-7.07zm-40.62-11.44 35.99 5.43-35.99 5.39v-10.82zm2.55 7.87 16.32-2.44-16.32-2.48v4.92z" id="path3649" fill="#f2f2f2"/><path d="m1236.17 255.2v12.57l-28.09 7.51h27.91l0.22 12.1H1170.63V274.8l26.92-7.14H1170.63V255.2h65.54zm-62.99 2.55v7.36h43.9l-43.9 11.66v8.05h60.41l-0.07-6.99h-44.88l44.99-12.02v-8.05h-60.44z" id="path3651" fill="#f2f2f2"/></g><g id="g3653"><path d="m1237 359h-72v-59h72v59zm-65-7h58v-45h-58v45z" id="path3655" fill="#f2f2f2"/></g></g></svg>