<svg xmlns:svg="http://www.w3.org/2000/svg" xmlns="http://www.w3.org/2000/svg" version="1.1" id="Layer_1" x="0" y="0" width="1024" height="1024" viewBox="0 0 1000.12 313.98" enable-background="new 0 0 1002 388" xml:space="preserve">
<style>
.s0{
	fill:#f2f2f2;
}

</style>  <metadata id="metadata3319"/>
  <defs id="defs3317"/>
  <g id="Layer_1_1_" transform="matrix(1.0213427,0,0,1.0213427,-13.053781,-50.643278)">
    <g id="g3243">
      <path d="m12.78 268.02h58.46v22.69c0 9.05 4.91 13.58 14.74 13.58 9.71 0 14.57-4.53 14.57-13.58V54.22h58.46v236.48c0 43.94-24.34 65.91-73.03 65.91-48.8 0-73.2-21.97-73.2-65.91l0-22.69 0 0zm11.59 22.69c0 36.21 20.54 54.32 61.6 54.32 40.96 0 61.44-18.1 61.44-54.32V65.81h-35.27v224.89c0 16.78-8.72 25.17-26.17 25.17-17.55 0-26.33-8.39-26.33-25.17V279.61H24.37v11.1z" id="path3245" fill="#f2f2f2"/>
      <path d="m345.15 243.67 16.23 108.47H302.42l-9.11-60.94h-37.92l-9.27 60.94H187.16L203.39 244.17 237.34 54.22h74.03l33.78 189.45zM301.59 65.81h-54.48l-32.29 180.34-14.24 94.39h35.6l9.27-60.94h57.8l9.11 60.94h35.6L333.72 245.66 301.59 65.81zm-52 184.65 24.68-163.62 24.51 163.62h-49.18zm35.77-11.59-11.09-74.19-11.26 74.19h22.36z" id="path3247" fill="#f2f2f2"/>
      <path d="m386.22 115.66c0-44.05 24.34-66.08 73.03-66.08 48.8 0 73.2 22.03 73.2 66.08v44.22h-58.46v-44.22c0-9.05-4.86-13.63-14.57-13.74-9.83 0-14.74 4.58-14.74 13.75v25.83c0 10.71 13.75 24.68 41.24 41.9 31.02 19.54 46.54 43.22 46.54 71.04v36.27c0 43.94-24.34 65.91-73.03 65.91-48.8 0-73.2-21.97-73.2-65.91V246.32h58.46v44.38c0 9.05 4.91 13.58 14.74 13.58 9.71 0 14.57-4.53 14.57-13.58v-32.62c0-11.81-13.74-26.33-41.23-43.55-31.02-19.65-46.53-43.66-46.53-72.04v-26.83zm11.59 26.83c0 24.18 13.75 44.88 41.24 62.1 31.02 19.65 46.53 37.48 46.53 53.49v32.62c0 16.78-8.72 25.17-26.16 25.17-17.55 0-26.33-8.39-26.33-25.17v-32.79h-35.27v32.79c0 36.21 20.54 54.32 61.6 54.32 40.96 0 61.44-18.1 61.44-54.32v-36.27c0-23.62-13.74-43.99-41.23-61.11-31.02-19.65-46.53-36.93-46.53-51.83v-25.83c0-16.89 8.78-25.34 26.33-25.34 17.44 0.11 26.17 8.56 26.17 25.34v32.62h35.27v-32.62c0-36.32-20.53-54.48-61.6-54.48-40.96 0-61.44 18.16-61.44 54.48l0 26.83 0 0z" id="path3249" fill="#f2f2f2"/>
      <path d="m715.1 290.7c0 43.94-24.4 65.91-73.2 65.91-48.69 0-73.03-21.97-73.03-65.91V115.66c0-44.05 24.34-66.08 73.03-66.08 48.8 0 73.2 22.03 73.2 66.08V290.7zM703.51 115.66c0-36.32-20.53-54.48-61.6-54.48-40.96 0-61.44 18.16-61.44 54.48v175.04c0 36.21 20.48 54.32 61.44 54.32 41.07 0 61.6-18.1 61.6-54.32V115.66zm-35.27 175.04c0 16.78-8.78 25.17-26.33 25.17-17.44 0-26.16-8.39-26.16-25.17V115.66c0-16.89 8.78-25.34 26.33-25.34 17.44 0.11 26.17 8.56 26.17 25.34V290.7zM656.65 115.66c0-9.05-4.86-13.63-14.57-13.74-9.83 0-14.74 4.58-14.74 13.75v175.04c0 9.05 4.86 13.58 14.57 13.58 9.82 0 14.74-4.53 14.74-13.58V115.66z" id="path3251" fill="#f2f2f2"/>
      <path d="m754.85 54.22h57.13l34.11 127.68V55.05l54.98-0.99V352.14H843.94L811.48 229.76v122.38h-56.64l0-297.92 0 0zM766.44 340.55h33.45V141l52.99 199.55h36.6V65.98l-31.79 0.33V270.33L803.04 65.81H766.44V340.55z" id="path3253" fill="#f2f2f2"/>
    </g>
    <g id="g3255">
      <path d="m991.17 53.33v12.57l-28.09 7.51H990.99L991.21 85.5H925.63V72.93L952.55 65.79H925.63V53.33h65.54zm-62.99 2.55v7.36h43.9l-43.9 11.66v8.05h60.41l-0.07-6.99H943.63L988.62 63.93V55.88h-60.44z" id="path3257" fill="#f2f2f2"/>
      <path d="m949.49 126.45-23.86 3.57v-12.97l13.41-2v-8.34l-13.41-2.04v-12.97l23.75 3.57 41.79 7.47v16.29l-41.68 7.43zm39.13-9.58v-11.99l-39.67-7.1-20.77-3.13v7.83l13.41 2.04v12.72l-13.41 2v7.83l20.88-3.13 39.57-7.07zM948 105.43 984 110.86 948 116.25v-10.82zm2.55 7.87 16.32-2.44-16.32-2.48v4.92z" id="path3259" fill="#f2f2f2"/>
      <path d="M991.17 163.76H979.66v-9.65h-54.03v-12.86h54.03v-9.65h11.51v32.17l0 0zm-2.55-29.62h-6.41v9.65h-54.03v7.76h54.03v9.65h6.41v-27.07z" id="path3261" fill="#f2f2f2"/>
      <path d="m991.17 170.32v12.86h-27v6.45h27v12.86H925.63v-12.86h27.03v-6.45H925.63v-12.86h65.54zm-62.99 2.55v7.76h27.03v11.55h-27.03v7.76h60.44v-7.76h-27v-11.55h27v-7.76h-60.44z" id="path3263" fill="#f2f2f2"/>
      <path d="m949.49 243.44-23.86 3.57v-12.97l13.41-2v-8.34L925.63 221.65V208.68l23.75 3.57 41.79 7.47v16.29l-41.68 7.43zm39.13-9.58v-11.98l-39.67-7.1-20.77-3.13v7.83l13.41 2.04v12.72l-13.41 2v7.83l20.88-3.13 39.57-7.07zM948 222.41 984 227.84 948 233.23v-10.82zm2.55 7.87 16.32-2.44-16.32-2.48v4.92z" id="path3265" fill="#f2f2f2"/>
      <path d="m991.17 253.2v12.57l-28.09 7.5h27.91l0.22 12.1H925.63V272.8l26.92-7.14H925.63V253.2h65.54zm-62.99 2.55v7.36h43.9l-43.9 11.66v8.05h60.41l-0.07-6.99h-44.88l44.99-12.02v-8.05h-60.44z" id="path3267" fill="#f2f2f2"/>
    </g>
    <g id="g3269">
      <path d="m992 357h-72v-59h72v59zm-65-7h58v-45h-58v45z" id="path3271" fill="#f2f2f2"/>
    </g>
  </g>
</svg>
