<svg xmlns:svg="http://www.w3.org/2000/svg" xmlns="http://www.w3.org/2000/svg" version="1.1" id="Layer_1" x="0" y="0" width="1598.94" height="316.38" viewBox="0 0 1598.94 316.38" enable-background="new 0 0 1600.188 388" xml:space="preserve"><style>.s0{fill:#f2f2f2;}</style><metadata id="metadata4086"/><defs id="defs4084"/><g id="Portfolio" transform="matrix(1.0304722,0,0,1.0304722,-22.184006,-54.187382)"><g id="g4002"><path d="m21.53 57.22h71.21c1.33 0.11 2.26 0.17 2.82 0.17 45.48 0 68.23 21.92 68.23 65.74v43.22c0 32.46-16.4 53.38-49.18 62.76-7.62 2.1-18.55 3.15-32.79 3.15H79.99V355.14H21.53V57.22zM33.12 343.55H68.39V220.67h13.41c13.14 0 23.07-0.94 29.81-2.81 27.05-7.62 40.57-24.78 40.57-51.5v-43.22c0-36.1-18.88-54.15-56.64-54.15-0.77 0-1.82-0.05-3.15-0.17H33.12V343.55zM90.75 97.96c17.44 0 26.17 8.39 26.17 25.17v43.22c0 11.81-5.52 19.65-16.56 23.52-3.09 1.1-8.23 1.66-15.4 1.66H68.39V97.96H90.75zm-10.76 11.59v70.38h4.97c5.85 0 9.66-0.33 11.43-0.99 5.96-2.1 8.94-6.29 8.94-12.58v-43.22c0-9.05-4.86-13.58-14.57-13.58l-10.76 0 0 0z" id="path4004" fill="#f2f2f2"/><path d="m341.47 293.7c0 43.94-24.4 65.91-73.2 65.91-48.69 0-73.03-21.97-73.03-65.91V118.66c0-44.05 24.34-66.08 73.03-66.08 48.8 0 73.2 22.03 73.2 66.08V293.7zM329.88 118.66c0-36.32-20.53-54.48-61.6-54.48-40.96 0-61.44 18.16-61.44 54.48v175.04c0 36.21 20.48 54.32 61.44 54.32 41.07 0 61.6-18.1 61.6-54.32V118.66zm-35.27 175.04c0 16.78-8.78 25.17-26.33 25.17-17.44 0-26.16-8.39-26.16-25.17V118.66c0-16.89 8.78-25.34 26.33-25.34 17.44 0.11 26.17 8.56 26.17 25.34V293.7zM283.02 118.66c0-9.05-4.86-13.63-14.57-13.74-9.83 0-14.74 4.58-14.74 13.75v175.04c0 9.05 4.86 13.58 14.57 13.58 9.82 0 14.74-4.53 14.74-13.58V118.66l0 0z" id="path4006" fill="#f2f2f2"/><path d="m381.22 57.22h71.21c1.33 0.11 2.26 0.17 2.82 0.17 45.48 0 68.23 21.92 68.23 65.74v43.22c0 27.93-11.7 45.71-35.11 53.33l53.49 135.46H477.93L439.68 242.04V355.14H381.22V57.22zm11.59 286.33h35.27V219.18l15.73-2.32 42.4 126.69h38.75L473.13 212.39c25.83-8.28 38.75-23.62 38.75-46.04v-43.22c0-36.1-18.88-54.15-56.64-54.15-0.77 0-1.82-0.05-3.15-0.17H392.81V343.55l0 0zM450.44 97.96c17.44 0 26.17 8.39 26.17 25.17v43.22c0 11.81-5.52 19.65-16.56 23.52-3.09 1.1-8.23 1.66-15.4 1.66H428.08V97.96h22.36zm-10.76 11.59v70.38h4.97c5.85 0 9.66-0.33 11.43-0.99 5.96-2.1 8.94-6.29 8.94-12.58v-43.22c0-9.05-4.86-13.58-14.57-13.58l-10.76 0 0 0z" id="path4008" fill="#f2f2f2"/><path d="m693.55 57.22v52.33H649.66V355.14H591.2V109.55H547.32V57.22H693.55zM558.91 68.81V97.96h43.89v245.59h35.27V97.96h43.89V68.81H558.91z" id="path4010" fill="#f2f2f2"/><path d="M723.35 57.22H856.5v52.33h-74.69v70.38h64.25v52.33H781.81V355.14H723.35V57.22zm11.59 286.33h35.27V220.67h64.25V191.53H770.22V97.96h74.69V68.81H734.95V343.55l0 0z" id="path4012" fill="#f2f2f2"/><path d="m1030.88 293.7c0 43.94-24.4 65.91-73.19 65.91-48.69 0-73.03-21.97-73.03-65.91V118.66c0-44.05 24.34-66.08 73.03-66.08 48.8 0 73.19 22.03 73.19 66.08v175.04l0 0zm-11.59-175.04c0-36.32-20.53-54.48-61.6-54.48-40.96 0-61.44 18.16-61.44 54.48v175.04c0 36.21 20.48 54.32 61.44 54.32 41.07 0 61.6-18.1 61.6-54.32V118.66zm-35.27 175.04c0 16.78-8.78 25.17-26.33 25.17-17.44 0-26.16-8.39-26.16-25.17V118.66c0-16.89 8.78-25.34 26.33-25.34 17.44 0.11 26.17 8.56 26.17 25.34V293.7zM972.42 118.66c0-9.05-4.86-13.63-14.57-13.74-9.83 0-14.74 4.58-14.74 13.75v175.04c0 9.05 4.86 13.58 14.57 13.58 9.82 0 14.74-4.53 14.74-13.58V118.66z" id="path4014" fill="#f2f2f2"/><path d="M1070.62 355.14V57.22h58.46V302.81h74.69v52.33H1070.62zM1192.18 343.55V314.4H1117.49V68.81h-35.27V343.55h109.96z" id="path4016" fill="#f2f2f2"/><path d="m1232.75 57.22h58.46v297.92h-58.46V57.22zm11.59 286.33h35.27V68.81h-35.27V343.55z" id="path4018" fill="#f2f2f2"/><path d="m1477.18 293.7c0 43.94-24.4 65.91-73.2 65.91-48.69 0-73.03-21.97-73.03-65.91V118.66c0-44.05 24.34-66.08 73.03-66.08 48.8 0 73.2 22.03 73.2 66.08v175.04zm-11.59-175.04c0-36.32-20.53-54.48-61.6-54.48-40.96 0-61.44 18.16-61.44 54.48v175.04c0 36.21 20.48 54.32 61.44 54.32 41.07 0 61.6-18.1 61.6-54.32V118.66zm-35.27 175.04c0 16.78-8.78 25.17-26.33 25.17-17.44 0-26.17-8.39-26.17-25.17V118.66c0-16.89 8.78-25.34 26.33-25.34 17.44 0.11 26.16 8.56 26.16 25.34v175.04zm-11.59-175.04c0-9.05-4.86-13.63-14.57-13.74-9.83 0-14.74 4.58-14.74 13.75v175.04c0 9.05 4.86 13.58 14.57 13.58 9.82 0 14.74-4.53 14.74-13.58V118.66z" id="path4020" fill="#f2f2f2"/></g><g id="g4022"><path d="m1572.36 54.33v12.57l-28.09 7.51h27.91l0.22 12.1h-65.58V73.93l26.92-7.14h-26.92V54.33h65.54zm-62.99 2.55v7.36h43.9l-43.9 11.66v8.05h60.41l-0.07-6.99h-44.88l44.99-12.02V56.88h-60.44z" id="path4024" fill="#f2f2f2"/><path d="m1530.68 127.45-23.86 3.57v-12.97l13.41-2v-8.34l-13.41-2.04v-12.97l23.75 3.57 41.79 7.47v16.29l-41.68 7.43zm39.13-9.58v-11.99l-39.68-7.1-20.77-3.13v7.83l13.41 2.04v12.72l-13.41 2v7.83l20.88-3.13 39.57-7.07zm-40.62-11.44 35.99 5.43-35.99 5.39v-10.82zm2.55 7.87 16.32-2.44-16.32-2.48v4.92z" id="path4026" fill="#f2f2f2"/><path d="m1572.36 164.76h-11.51v-9.65h-54.03v-12.86h54.03v-9.65h11.51v32.17zm-2.55-29.62h-6.41v9.65h-54.03v7.76h54.03v9.65h6.41v-27.07z" id="path4028" fill="#f2f2f2"/><path d="m1572.36 171.32v12.86h-27v6.45h27v12.86h-65.54v-12.86h27.03v-6.45h-27.03v-12.86h65.54zm-62.99 2.55v7.76h27.03v11.55h-27.03v7.76h60.44v-7.76h-26.99v-11.55h27v-7.76h-60.44z" id="path4030" fill="#f2f2f2"/><path d="m1530.68 244.44-23.86 3.57v-12.97l13.41-2v-8.34l-13.41-2.04V209.68l23.75 3.57 41.79 7.47v16.29l-41.68 7.43zm39.13-9.58v-11.98l-39.68-7.1-20.77-3.13v7.83l13.41 2.04v12.72l-13.41 2v7.83l20.88-3.13 39.57-7.07zm-40.62-11.44 35.99 5.43-35.99 5.39v-10.82zm2.55 7.87 16.32-2.44-16.32-2.48v4.92z" id="path4032" fill="#f2f2f2"/><path d="m1572.36 254.2v12.57l-28.09 7.5h27.91l0.22 12.1h-65.58V273.8l26.92-7.14h-26.92V254.2h65.54zm-62.99 2.55v7.36h43.9l-43.9 11.66v8.05h60.41l-0.07-6.99h-44.88l44.99-12.02v-8.05h-60.44z" id="path4034" fill="#f2f2f2"/></g><g id="g4036"><path d="m1573.19 358h-72v-59h72v59zm-65-7h58v-45h-58v45z" id="path4038" fill="#f2f2f2"/></g></g></svg>