<?xml version="1.0"?><svg width="640" height="480" xmlns="http://www.w3.org/2000/svg" xmlns:xlink="http://www.w3.org/1999/xlink">
 <defs>
  <radialGradient xlink:href="#linearGradient3265-10" id="radialGradient9452-61" gradientUnits="userSpaceOnUse" gradientTransform="matrix(2.0953598022460938,-0.3880675137042999,0.3880675137042999,2.0953598022460938,-170.22537231445312,-922.2938842773438)" cx="158.92857" cy="520.93365" fx="158.92857" fy="520.93365" r="27.5"/>
  <linearGradient id="linearGradient3265-10">
   <stop stop-color="#fbfb00" id="stop2838" offset="0"/>
   <stop stop-color="#fbfb00" stop-opacity="0" id="stop2840" offset="1"/>
  </linearGradient>
  <linearGradient xlink:href="#linearGradient3237-165" id="linearGradient9456-239" gradientTransform="matrix(0.8051948,0,0,0.8051948,34.160483,105.5854)" x1="0.73184" y1="1.261024" x2="0.328159" y2="1.261024"/>
  <linearGradient id="linearGradient3237-165">
   <stop stop-color="#dcdc00" id="stop2850" offset="0"/>
   <stop stop-color="#dcdc00" stop-opacity="0" id="stop2852" offset="1"/>
  </linearGradient>
  <radialGradient xlink:href="#linearGradient8745-138" id="radialGradient9458-604" gradientUnits="userSpaceOnUse" gradientTransform="matrix(3.1334009170532227,-0.9690845012664795,1.0351842641830444,3.347125291824341,-725.5706176757812,-1640.6192626953125)" cx="178.01843" cy="559.30347" fx="178.01843" fy="559.30347" r="27.5"/>
  <linearGradient id="linearGradient8745-138">
   <stop stop-color="#c3a100" offset="0" id="stop2856"/>
   <stop stop-color="#a39100" stop-opacity="0" offset="1" id="stop2858"/>
  </linearGradient>
  <radialGradient xlink:href="#linearGradient3265-589" id="radialGradient9442-751" gradientUnits="userSpaceOnUse" gradientTransform="matrix(2.425853967666626,0.14882409572601318,-0.14882409572601318,2.425853967666626,-224.55148315429688,-1214.5936279296875)" cx="158.92857" cy="520.93365" fx="158.92857" fy="520.93365" r="27.5"/>
  <linearGradient id="linearGradient3265-589">
   <stop stop-color="#fbfb00" id="stop2870" offset="0"/>
   <stop stop-color="#fbfb00" stop-opacity="0" id="stop2872" offset="1"/>
  </linearGradient>
  <linearGradient xlink:href="#linearGradient3237-172" id="linearGradient9446-546" gradientTransform="matrix(0.8051948,0,0,0.8051948,34.160483,105.5854)" x1="0.73184" y1="1.261024" x2="0.328159" y2="1.261024"/>
  <linearGradient id="linearGradient3237-172">
   <stop stop-color="#dcdc00" id="stop2882" offset="0"/>
   <stop stop-color="#dcdc00" stop-opacity="0" id="stop2884" offset="1"/>
  </linearGradient>
  <radialGradient xlink:href="#linearGradient8745-502" id="radialGradient9448-996" gradientUnits="userSpaceOnUse" gradientTransform="matrix(3.734912157058716,-0.20766544342041016,0.2218300700187683,3.9896645545959473,-664.0257568359375,-2030.1893310546875)" cx="178.01843" cy="559.30347" fx="178.01843" fy="559.30347" r="27.5"/>
  <linearGradient id="linearGradient8745-502">
   <stop stop-color="#c3a100" offset="0" id="stop2888"/>
   <stop stop-color="#a39100" stop-opacity="0" offset="1" id="stop2890"/>
  </linearGradient>
 </defs>
 <metadata id="metadata7">image/svg+xmlbuttonshrumbutton</metadata>
 <g>
  <path fill="#8b1c00" fill-rule="evenodd" stroke-width="4" marker-start="none" marker-mid="none" marker-end="none" stroke-miterlimit="4" stroke-dashoffset="0" id="path9404" d="m124.302498,59.59684c-36.824448,-2.259148 -68.544537,25.793877 -70.80365,62.618324c-2.259148,36.824448 25.793839,68.544495 62.618324,70.80365c36.824448,2.25914 68.544464,-25.793884 70.80365,-62.618332c2.25914,-36.82444 -25.793884,-68.544491 -62.618324,-70.803642zm7.066429,43.5784c4.043945,0.115822 7.672195,3.004051 8.389114,7.134773c0.819351,4.720787 -2.440506,9.242294 -7.161285,10.061531c-4.720795,0.819382 -9.171066,-2.360039 -9.990379,-7.080826c-0.819305,-4.720787 2.284203,-9.175789 7.005028,-9.995026c0.590103,-0.102455 1.179825,-0.137024 1.757523,-0.120453zm-30.41246,7.037132c4.029625,0.118355 7.515961,3.070557 8.232841,7.201279c0.819305,4.720787 -2.284195,9.175644 -7.00502,9.995026c-4.720825,0.819382 -9.246834,-2.364693 -10.066185,-7.08548c-0.819298,-4.720932 2.360008,-9.17099 7.080833,-9.990372c0.590096,-0.102455 1.181847,-0.137344 1.75753,-0.120453zm36.896149,19.993271c4.04393,0.115829 7.667542,3.079865 8.38446,7.210587c0.819305,4.720795 -2.435806,9.166351 -7.156631,9.985718c-4.720825,0.819382 -9.175735,-2.284073 -9.995026,-7.00502c-0.819382,-4.720932 2.288849,-9.251587 7.009659,-10.070831c0.590103,-0.102448 1.17984,-0.137024 1.757538,-0.120453zm-30.417114,7.112946c4.029625,0.118362 7.520607,2.994751 8.237495,7.125473c0.819336,4.720932 -2.288811,9.25145 -7.009674,10.070831c-4.720818,0.819229 -9.246872,-2.364685 -10.066177,-7.08548c-0.819313,-4.720779 2.360001,-9.17099 7.080826,-9.990372c0.590103,-0.102463 1.181854,-0.137344 1.75753,-0.120453z"/>
  <path fill="url(#radialGradient9442-751)" fill-rule="evenodd" stroke-width="4" marker-start="none" marker-mid="none" marker-end="none" stroke-miterlimit="4" stroke-dashoffset="0" id="path9406" d="m124.302498,59.59684c-36.824448,-2.259148 -68.544537,25.793877 -70.80365,62.618324c-2.259148,36.824448 25.793839,68.544495 62.618324,70.80365c36.824448,2.25914 68.544464,-25.793884 70.80365,-62.618332c2.25914,-36.82444 -25.793884,-68.544491 -62.618324,-70.803642zm7.066429,43.5784c4.043945,0.115822 7.672195,3.004051 8.389114,7.134773c0.819351,4.720787 -2.440506,9.242294 -7.161285,10.061531c-4.720795,0.819382 -9.171066,-2.360039 -9.990379,-7.080826c-0.819305,-4.720787 2.284203,-9.175789 7.005028,-9.995026c0.590103,-0.102455 1.179825,-0.137024 1.757523,-0.120453zm-30.41246,7.037132c4.029625,0.118355 7.515961,3.070557 8.232841,7.201279c0.819305,4.720787 -2.284195,9.175644 -7.00502,9.995026c-4.720825,0.819382 -9.246834,-2.364693 -10.066185,-7.08548c-0.819298,-4.720932 2.360008,-9.17099 7.080833,-9.990372c0.590096,-0.102455 1.181847,-0.137344 1.75753,-0.120453zm36.896149,19.993271c4.04393,0.115829 7.667542,3.079865 8.38446,7.210587c0.819305,4.720795 -2.435806,9.166351 -7.156631,9.985718c-4.720825,0.819382 -9.175735,-2.284073 -9.995026,-7.00502c-0.819382,-4.720932 2.288849,-9.251587 7.009659,-10.070831c0.590103,-0.102448 1.17984,-0.137024 1.757538,-0.120453zm-30.417114,7.112946c4.029625,0.118362 7.520607,2.994751 8.237495,7.125473c0.819336,4.720932 -2.288811,9.25145 -7.009674,10.070831c-4.720818,0.819229 -9.246872,-2.364685 -10.066177,-7.08548c-0.819313,-4.720779 2.360001,-9.17099 7.080826,-9.990372c0.590103,-0.102463 1.181854,-0.137344 1.75753,-0.120453z"/>
  <path fill="#7f3f00" fill-rule="evenodd" stroke-width="4" marker-start="none" marker-mid="none" marker-end="none" stroke-miterlimit="4" stroke-dashoffset="0" id="path9408" d="m125.649368,64.929909c-34.911514,-2.141796 -64.960712,24.433464 -67.102547,59.345085c-2.141792,34.911484 24.433609,64.960754 59.345093,67.102554c34.911507,2.141785 65.036522,-24.42897 67.178352,-59.340439c2.141785,-34.911484 -24.509384,-64.965408 -59.420898,-67.107201zm5.719559,38.245331c4.043945,0.115822 7.672195,3.004051 8.389114,7.134773c0.819351,4.720787 -2.440506,9.242294 -7.161285,10.061531c-4.720795,0.819382 -9.171066,-2.360039 -9.990379,-7.080826c-0.819305,-4.720787 2.284203,-9.175789 7.005028,-9.995026c0.590103,-0.102455 1.179825,-0.137024 1.757523,-0.120453zm-30.41246,7.037132c4.029625,0.118355 7.515961,3.070557 8.232841,7.201279c0.819305,4.720787 -2.284195,9.175644 -7.00502,9.995026c-4.720825,0.819382 -9.246834,-2.364693 -10.066185,-7.08548c-0.819298,-4.720932 2.360008,-9.17099 7.080833,-9.990372c0.590096,-0.102455 1.181847,-0.137344 1.75753,-0.120453zm36.896149,19.993271c4.04393,0.115829 7.667542,3.079865 8.38446,7.210587c0.819305,4.720795 -2.435806,9.166351 -7.156631,9.985718c-4.720825,0.819382 -9.175735,-2.284073 -9.995026,-7.00502c-0.819382,-4.720932 2.288849,-9.251587 7.009659,-10.070831c0.590103,-0.102448 1.17984,-0.137024 1.757538,-0.120453zm-30.417114,7.112946c4.029625,0.118362 7.520607,2.994751 8.237495,7.125473c0.819336,4.720932 -2.288811,9.25145 -7.009674,10.070831c-4.720818,0.819229 -9.246872,-2.364685 -10.066177,-7.08548c-0.819313,-4.720779 2.360001,-9.17099 7.080826,-9.990372c0.590103,-0.102463 1.181854,-0.137344 1.75753,-0.120453z"/>
  <path fill="#7f0000" fill-rule="evenodd" stroke="url(#linearGradient9446-546)" stroke-width="1.321" marker-start="none" marker-mid="none" marker-end="none" stroke-miterlimit="4" stroke-dashoffset="0" stroke-opacity="0.860335" id="path9410" d="m125.06337,74.481705c-29.650856,-1.819054 -55.145729,20.728462 -56.964752,50.379288c-1.819046,29.650818 20.723778,55.221497 50.374641,57.040558c29.650856,1.819061 55.226158,-20.799622 57.045204,-50.450439c1.819061,-29.650826 -20.80423,-55.150352 -50.455093,-56.969406zm6.305557,28.693535c4.043945,0.115822 7.672195,3.004051 8.389114,7.134773c0.819351,4.720787 -2.440506,9.242294 -7.161285,10.061531c-4.720795,0.819382 -9.171066,-2.360039 -9.990379,-7.080826c-0.819305,-4.720787 2.284203,-9.175789 7.005028,-9.995026c0.590103,-0.102455 1.179825,-0.137024 1.757523,-0.120453zm-30.41246,7.037132c4.029625,0.118355 7.515961,3.070557 8.232841,7.201279c0.819305,4.720787 -2.284195,9.175644 -7.00502,9.995026c-4.720825,0.819382 -9.246834,-2.364693 -10.066185,-7.08548c-0.819298,-4.720932 2.360008,-9.17099 7.080833,-9.990372c0.590096,-0.102455 1.181847,-0.137344 1.75753,-0.120453zm36.896149,19.993271c4.04393,0.115829 7.667542,3.079865 8.38446,7.210587c0.819305,4.720795 -2.435806,9.166351 -7.156631,9.985718c-4.720825,0.819382 -9.175735,-2.284073 -9.995026,-7.00502c-0.819382,-4.720932 2.288849,-9.251587 7.009659,-10.070831c0.590103,-0.102448 1.17984,-0.137024 1.757538,-0.120453zm-30.417114,7.112946c4.029625,0.118362 7.520607,2.994751 8.237495,7.125473c0.819336,4.720932 -2.288811,9.25145 -7.009674,10.070831c-4.720818,0.819229 -9.246872,-2.364685 -10.066177,-7.08548c-0.819313,-4.720779 2.360001,-9.17099 7.080826,-9.990372c0.590103,-0.102463 1.181854,-0.137344 1.75753,-0.120453z"/>
  <path fill="url(#radialGradient9448-996)" fill-rule="evenodd" stroke-width="1.640597" marker-start="none" marker-mid="none" marker-end="none" stroke-miterlimit="4" stroke-dashoffset="0" stroke-opacity="0.860335" id="path9412" d="m124.06337,75.481705c-29.650864,-1.819046 -55.145737,20.72847 -56.964752,50.379288c-1.819046,29.650818 20.72377,55.221497 50.374649,57.040558c29.650848,1.819061 55.226151,-20.799622 57.045197,-50.450439c1.819061,-29.650818 -20.80423,-55.15036 -50.455093,-56.969406zm6.305557,28.693527c4.043945,0.115845 7.672195,3.004059 8.389114,7.134766c0.819351,4.720795 -2.440506,9.24231 -7.161285,10.061554c-4.720795,0.819366 -9.171066,-2.360046 -9.990372,-7.080841c-0.819305,-4.720764 2.284195,-9.175781 7.00502,-9.995026c0.590103,-0.102448 1.179825,-0.137024 1.757523,-0.120453zm-30.41246,7.03714c4.029617,0.118347 7.515961,3.070557 8.232834,7.201263c0.819305,4.720795 -2.28418,9.175659 -7.005005,9.995056c-4.720825,0.819366 -9.246841,-2.364716 -10.066193,-7.08551c-0.819305,-4.720917 2.360016,-9.170959 7.080841,-9.990356c0.590088,-0.102448 1.181839,-0.137329 1.757523,-0.120453zm36.896149,19.993256c4.04393,0.115845 7.667542,3.079895 8.38446,7.210602c0.819305,4.720795 -2.435806,9.166351 -7.156631,9.985718c-4.720825,0.819366 -9.175735,-2.284088 -9.995026,-7.005035c-0.819382,-4.720917 2.288849,-9.251587 7.009659,-10.070801c0.590103,-0.102478 1.17984,-0.137024 1.757538,-0.120483zm-30.417114,7.112976c4.029617,0.118347 7.520615,2.994751 8.237503,7.125458c0.819336,4.720917 -2.288818,9.251434 -7.009674,10.070831c-4.720825,0.819214 -9.246887,-2.364685 -10.066193,-7.08548c-0.819305,-4.720795 2.360016,-9.17099 7.080841,-9.990387c0.590088,-0.102448 1.181854,-0.137329 1.757523,-0.120422z"/>
  <path fill="#fbfb00" fill-rule="evenodd" stroke-width="1.321" marker-start="none" marker-mid="none" marker-end="none" stroke-miterlimit="4" stroke-dashoffset="0" stroke-opacity="0.860335" id="path9414" d="m123.221214,108.230186c-0.682426,1.520721 -0.922066,3.290199 -0.614838,5.060532c0.819313,4.720787 5.269585,7.900208 9.990379,7.080826c3.620392,-0.628288 6.33432,-3.45945 7.041763,-6.872948c-1.155502,2.56028 -3.524765,4.569313 -6.475296,5.081467c-4.720795,0.819382 -9.242226,-2.440506 -10.061539,-7.161293c-0.190056,-1.094795 -0.087395,-2.16317 0.11953,-3.188583zm-30.511528,7.411522c-0.58815,1.449669 -0.879478,3.022476 -0.591583,4.681488c0.819351,4.720787 5.34536,7.904861 10.066185,7.08548c3.643036,-0.632256 6.296425,-3.459396 6.965958,-6.877594c-1.137383,2.534485 -3.520164,4.493645 -6.47065,5.005653c-4.720825,0.819382 -9.171097,-2.360046 -9.990372,-7.080833c-0.171089,-0.985588 -0.136795,-1.886047 0.020462,-2.814194zm36.990555,19.694702c-0.682419,1.520721 -0.922089,3.290192 -0.614822,5.060516c0.81929,4.720947 5.2742,7.824402 9.995026,7.00502c3.620422,-0.628281 6.326096,-3.404221 7.037109,-6.797134c-1.159286,2.538345 -3.591278,4.413193 -6.541809,4.925201c-4.72081,0.819229 -9.175705,-2.284241 -9.995026,-7.00502c-0.190002,-1.094955 -0.087433,-2.163025 0.119522,-3.188583zm-30.488266,7.032471c-0.682426,1.520721 -0.922066,3.290207 -0.61483,5.060532c0.819305,4.720795 5.34536,7.904709 10.066177,7.08548c3.643074,-0.632248 6.296425,-3.459396 6.965958,-6.877594c-1.137383,2.534485 -3.520164,4.493652 -6.47065,5.005646c-4.720818,0.819244 -9.171066,-2.360031 -9.990372,-7.080826c-0.190025,-1.094788 -0.163216,-2.167664 0.043716,-3.193237z"/>
  <path fill="#8b1c00" fill-rule="evenodd" stroke-width="4" marker-start="none" marker-mid="none" marker-end="none" stroke-miterlimit="4" stroke-dashoffset="0" d="m396.89798,87.703766c-31.807526,5.890862 -52.8414,36.48671 -46.950531,68.29425c5.890869,31.807556 36.486664,52.841415 68.29425,46.950546c31.807556,-5.890869 52.8414,-36.48671 46.950531,-68.29425c-5.890869,-31.807549 -36.486694,-52.841408 -68.29425,-46.950546zm15.257507,35.57489c3.464935,-0.759445 7.164429,0.927917 8.650757,4.290016c1.698639,3.842339 -0.115387,8.380638 -3.957733,10.07917c-3.842346,1.698669 -8.302979,-0.062027 -10.001587,-3.904388c-1.698578,-3.842361 -0.003479,-8.290886 3.838928,-9.989433c0.480286,-0.212372 0.97464,-0.36689 1.469635,-0.475365zm-24.380219,12.43924c3.453278,-0.754242 7.045624,1.017639 8.531891,4.379745c1.698608,3.842361 0.003479,8.290756 -3.838898,9.989441c-3.842377,1.698669 -8.368408,-0.049911 -10.067047,-3.892258c-1.698639,-3.842499 0.062012,-8.302887 3.904388,-10.001556c0.480286,-0.212372 0.976318,-0.367599 1.469666,-0.475372zm35.631073,9.181152c3.464935,-0.75943 7.176575,0.993408 8.662872,4.355499c1.698608,3.842361 -0.127472,8.315018 -3.969879,10.013687c-3.842377,1.698669 -8.290802,0.003586 -9.98941,-3.838898c-1.6987,-3.842484 -0.015625,-8.356369 3.826752,-10.054916c0.480316,-0.212372 0.97467,-0.366898 1.469666,-0.475372zm-24.368103,12.50473c3.453278,-0.754257 7.033478,0.952164 8.519775,4.31427c1.698639,3.842468 0.015625,8.356232 -3.826782,10.054916c-3.842407,1.698532 -8.368439,-0.049911 -10.067047,-3.892273c-1.698608,-3.842346 0.062012,-8.302887 3.904388,-10.001556c0.480286,-0.212372 0.976318,-0.367599 1.469666,-0.475357z" id="path9424"/>
  <path fill="url(#radialGradient9452-61)" fill-rule="evenodd" stroke-width="4" marker-start="none" marker-mid="none" marker-end="none" stroke-miterlimit="4" stroke-dashoffset="0" d="m396.89798,87.703766c-31.807526,5.890862 -52.8414,36.48671 -46.950531,68.29425c5.890869,31.807556 36.486664,52.841415 68.29425,46.950546c31.807556,-5.890869 52.8414,-36.48671 46.950531,-68.29425c-5.890869,-31.807549 -36.486694,-52.841408 -68.29425,-46.950546zm15.257507,35.57489c3.464935,-0.759445 7.164429,0.927917 8.650757,4.290016c1.698639,3.842339 -0.115387,8.380638 -3.957733,10.07917c-3.842346,1.698669 -8.302979,-0.062027 -10.001587,-3.904388c-1.698578,-3.842361 -0.003479,-8.290886 3.838928,-9.989433c0.480286,-0.212372 0.97464,-0.36689 1.469635,-0.475365zm-24.380219,12.43924c3.453278,-0.754242 7.045624,1.017639 8.531891,4.379745c1.698608,3.842361 0.003479,8.290756 -3.838898,9.989441c-3.842377,1.698669 -8.368408,-0.049911 -10.067047,-3.892258c-1.698639,-3.842499 0.062012,-8.302887 3.904388,-10.001556c0.480286,-0.212372 0.976318,-0.367599 1.469666,-0.475372zm35.631073,9.181152c3.464935,-0.75943 7.176575,0.993408 8.662872,4.355499c1.698608,3.842361 -0.127472,8.315018 -3.969879,10.013687c-3.842377,1.698669 -8.290802,0.003586 -9.98941,-3.838898c-1.6987,-3.842484 -0.015625,-8.356369 3.826752,-10.054916c0.480316,-0.212372 0.97467,-0.366898 1.469666,-0.475372zm-24.368103,12.50473c3.453278,-0.754257 7.033478,0.952164 8.519775,4.31427c1.698639,3.842468 0.015625,8.356232 -3.826782,10.054916c-3.842407,1.698532 -8.368439,-0.049911 -10.067047,-3.892273c-1.698608,-3.842346 0.062012,-8.302887 3.904388,-10.001556c0.480286,-0.212372 0.976318,-0.367599 1.469666,-0.475357z" id="path9426"/>
  <path fill="#7f0000" fill-rule="evenodd" stroke-width="4" marker-start="none" marker-mid="none" marker-end="none" stroke-miterlimit="4" stroke-dashoffset="0" d="m399.175323,91.955093c-30.155243,5.584846 -50.081146,34.568985 -44.496307,64.724319c5.584839,30.155197 34.569122,50.081146 64.724335,44.496307c30.155212,-5.584854 50.146606,-34.581253 44.561768,-64.73645c-5.584839,-30.155197 -34.634552,-50.069031 -64.789795,-44.484177zm12.980164,31.323563c3.464935,-0.759445 7.164429,0.927917 8.650757,4.290016c1.698639,3.842339 -0.115387,8.380638 -3.957733,10.07917c-3.842346,1.698669 -8.302979,-0.062027 -10.001587,-3.904388c-1.698578,-3.842361 -0.003479,-8.290886 3.838928,-9.989433c0.480286,-0.212372 0.97464,-0.36689 1.469635,-0.475365zm-24.380219,12.43924c3.453278,-0.754242 7.045624,1.017639 8.531891,4.379745c1.698608,3.842361 0.003479,8.290756 -3.838898,9.989441c-3.842377,1.698669 -8.368408,-0.049911 -10.067047,-3.892258c-1.698639,-3.842499 0.062012,-8.302887 3.904388,-10.001556c0.480286,-0.212372 0.976318,-0.367599 1.469666,-0.475372zm35.631073,9.181152c3.464935,-0.75943 7.176575,0.993408 8.662872,4.355499c1.698608,3.842361 -0.127472,8.315018 -3.969879,10.013687c-3.842377,1.698669 -8.290802,0.003586 -9.98941,-3.838898c-1.6987,-3.842484 -0.015625,-8.356369 3.826752,-10.054916c0.480316,-0.212372 0.97467,-0.366898 1.469666,-0.475372zm-24.368103,12.50473c3.453278,-0.754257 7.033478,0.952164 8.519775,4.31427c1.698639,3.842468 0.015625,8.356232 -3.826782,10.054916c-3.842407,1.698532 -8.368439,-0.049911 -10.067047,-3.892273c-1.698608,-3.842346 0.062012,-8.302887 3.904388,-10.001556c0.480286,-0.212372 0.976318,-0.367599 1.469666,-0.475357z" id="path9428"/>
  <path fill="#7f3f00" fill-rule="evenodd" stroke="url(#linearGradient9456-239)" stroke-width="1.321" marker-start="none" marker-mid="none" marker-end="none" stroke-miterlimit="4" stroke-dashoffset="0" stroke-opacity="0.860335" d="m400.703339,100.205566c-25.611267,4.743294 -42.517181,29.334595 -37.773834,54.945831c4.743286,25.611252 29.34668,42.582611 54.957947,37.839325c25.611267,-4.743301 42.570465,-29.412186 37.827179,-55.023438c-4.743286,-25.611244 -29.400024,-42.505005 -55.011292,-37.761719zm11.452148,23.07309c3.464935,-0.759445 7.164429,0.927917 8.650757,4.290016c1.698639,3.842339 -0.115387,8.380638 -3.957733,10.07917c-3.842346,1.698669 -8.302979,-0.062027 -10.001587,-3.904388c-1.698578,-3.842361 -0.003479,-8.290886 3.838928,-9.989433c0.480286,-0.212372 0.97464,-0.36689 1.469635,-0.475365zm-24.380219,12.43924c3.453278,-0.754242 7.045624,1.017639 8.531891,4.379745c1.698608,3.842361 0.003479,8.290756 -3.838898,9.989441c-3.842377,1.698669 -8.368408,-0.049911 -10.067047,-3.892258c-1.698639,-3.842499 0.062012,-8.302887 3.904388,-10.001556c0.480286,-0.212372 0.976318,-0.367599 1.469666,-0.475372zm35.631073,9.181152c3.464935,-0.75943 7.176575,0.993408 8.662872,4.355499c1.698608,3.842361 -0.127472,8.315018 -3.969879,10.013687c-3.842377,1.698669 -8.290802,0.003586 -9.98941,-3.838898c-1.6987,-3.842484 -0.015625,-8.356369 3.826752,-10.054916c0.480316,-0.212372 0.97467,-0.366898 1.469666,-0.475372zm-24.368103,12.50473c3.453278,-0.754257 7.033478,0.952164 8.519775,4.31427c1.698639,3.842468 0.015625,8.356232 -3.826782,10.054916c-3.842407,1.698532 -8.368439,-0.049911 -10.067047,-3.892273c-1.698608,-3.842346 0.062012,-8.302887 3.904388,-10.001556c0.480286,-0.212372 0.976318,-0.367599 1.469666,-0.475357z" id="path9430"/>
  <path fill="url(#radialGradient9458-604)" fill-rule="evenodd" stroke-width="1.640597" marker-start="none" marker-mid="none" marker-end="none" stroke-miterlimit="4" stroke-dashoffset="0" stroke-opacity="0.860335" d="m399.703369,101.205566c-25.611328,4.743286 -42.517212,29.334595 -37.773865,54.945831c4.743286,25.611237 29.34668,42.582611 54.957947,37.839325c25.611267,-4.743286 42.570435,-29.41217 37.827148,-55.023438c-4.743286,-25.611237 -29.400024,-42.505005 -55.01123,-37.761719zm11.452148,23.07309c3.464905,-0.759445 7.164429,0.927917 8.650757,4.290009c1.698608,3.842346 -0.115417,8.380646 -3.957764,10.079163c-3.842346,1.698669 -8.302979,-0.062012 -10.001587,-3.904358c-1.698608,-3.842377 -0.003479,-8.290894 3.838928,-9.989441c0.480286,-0.212372 0.97467,-0.366898 1.469666,-0.475372zm-24.380249,12.43924c3.453247,-0.754242 7.045654,1.017639 8.53186,4.379761c1.698608,3.842346 0.00354,8.290741 -3.838867,9.989441c-3.842407,1.698669 -8.368408,-0.049927 -10.067017,-3.892273c-1.698669,-3.842499 0.062012,-8.302887 3.904358,-10.001556c0.480286,-0.212372 0.976318,-0.367584 1.469666,-0.475372zm35.631104,9.181152c3.464905,-0.75943 7.176514,0.993408 8.662842,4.355499c1.698608,3.842377 -0.127441,8.315033 -3.969849,10.013702c-3.842407,1.698669 -8.290833,0.003571 -9.989441,-3.838928c-1.698669,-3.842468 -0.015625,-8.356354 3.826721,-10.054901c0.480347,-0.212372 0.974731,-0.366913 1.469727,-0.475372zm-24.368164,12.50473c3.453308,-0.754242 7.033508,0.952179 8.519775,4.31427c1.698669,3.842468 0.015625,8.356232 -3.826782,10.054901c-3.842407,1.698547 -8.368408,-0.049896 -10.067017,-3.892273c-1.698608,-3.842346 0.062012,-8.302856 3.904419,-10.001526c0.480225,-0.212402 0.976318,-0.367615 1.469604,-0.475372z" id="path9432"/>
  <path fill="#fbfb00" fill-rule="evenodd" stroke-width="1.321" marker-start="none" marker-mid="none" marker-end="none" stroke-miterlimit="4" stroke-dashoffset="0" stroke-opacity="0.860335" d="m406.296326,129.307785c-0.257904,1.438522 -0.086365,2.994751 0.550598,4.435669c1.698608,3.842361 6.159241,5.603058 10.001587,3.904388c2.946716,-1.302628 4.654907,-4.287033 4.532532,-7.341141c-0.439819,2.423294 -2.029205,4.635147 -4.430725,5.696854c-3.842346,1.698669 -8.380554,-0.115372 -10.079163,-3.957733c-0.393951,-0.891068 -0.533295,-1.821762 -0.574829,-2.738037zm-24.385071,12.778763c-0.19281,1.358093 -0.106964,2.757965 0.48996,4.108276c1.698639,3.842346 6.22467,5.590927 10.067047,3.892258c2.965149,-1.310806 4.622681,-4.278946 4.467072,-7.32901c-0.429901,2.397507 -2.041382,4.569809 -4.442871,5.631363c-3.842377,1.698685 -8.302979,-0.062012 -10.001556,-3.904373c-0.354645,-0.8022 -0.51651,-1.575531 -0.579651,-2.398514zm35.648071,8.907104c-0.257935,1.438538 -0.086426,2.994766 0.550598,4.435684c1.698608,3.842484 6.147034,5.537567 9.98941,3.838898c2.946777,-1.302643 4.659668,-4.238297 4.544708,-7.27565c-0.447723,2.405441 -2.118958,4.516434 -4.520477,5.578018c-3.842407,1.698547 -8.290833,0.003448 -9.989441,-3.838913c-0.393951,-0.891205 -0.533295,-1.821625 -0.574799,-2.738037zm-24.44574,12.451385c-0.257935,1.438522 -0.086365,2.994736 0.550598,4.435654c1.698608,3.842361 6.22464,5.590805 10.067047,3.892273c2.965179,-1.310822 4.622681,-4.278946 4.467072,-7.329025c-0.429901,2.397522 -2.041382,4.569809 -4.442841,5.631378c-3.842407,1.698547 -8.302979,-0.062027 -10.001587,-3.904388c-0.393921,-0.891068 -0.598755,-1.809509 -0.640289,-2.725891z" id="path9434"/>
  <title>Layer 1</title>
 </g>
</svg>