<?xml version="1.0" encoding="utf-8"?>
<!-- Generator: Adobe Illustrator 16.0.0, SVG Export Plug-In . SVG Version: 6.00 Build 0)  -->
<!DOCTYPE svg PUBLIC "-//W3C//DTD SVG 1.1//EN" "http://www.w3.org/Graphics/SVG/1.1/DTD/svg11.dtd">
<svg version="1.1" id="Layer_1" xmlns="http://www.w3.org/2000/svg" xmlns:xlink="http://www.w3.org/1999/xlink" x="0px" y="0px"
	 width="800px" height="600px" viewBox="0 0 800 600" enable-background="new 0 0 800 600" xml:space="preserve">
<g>
	<g>
		<g>
			<g>
				<path fill="#F2F2F2" d="M403.057,600.035L18.73,314.068L398.556,9.406L787.44,313.063L403.057,600.035z M34.22,313.762
					l368.824,274.424l368.78-275.308l-373.2-291.412L34.22,313.762z"/>
			</g>
		</g>
	</g>
	<g>
		<g>
			<g>
				<path fill="#010101" d="M403.044,571.713l-0.563-0.418L55.613,313.204l1.337-1.077L398.948,37.811l0.589,0.463l350.969,274.052
					l-1.38,1.025L403.044,571.713z M59.484,313.122l343.56,255.624l343.555-256.465L398.96,40.818L59.484,313.122z"/>
			</g>
		</g>
	</g>
</g>
<polygon fill="#CEB671" points="746.599,312.281 403.044,568.746 59.484,313.122 398.96,40.818 "/>
</svg>
