<?xml version="1.0" encoding="utf-8"?>
<!-- Generator: Adobe Illustrator 16.0.0, SVG Export Plug-In . SVG Version: 6.00 Build 0)  -->
<!DOCTYPE svg PUBLIC "-//W3C//DTD SVG 1.1//EN" "http://www.w3.org/Graphics/SVG/1.1/DTD/svg11.dtd">
<svg version="1.1" id="Layer_1" xmlns="http://www.w3.org/2000/svg" xmlns:xlink="http://www.w3.org/1999/xlink" x="0px" y="0px"
	 width="258.76px" height="73.667px" viewBox="0 0 258.76 73.667" enable-background="new 0 0 258.76 73.667" xml:space="preserve">
<g>
	<g>
		<g>
			<g>
				<g>
					<g>
						<polygon fill="#3A3330" points="232.025,53.634 26.801,53.634 18.759,4.059 240.672,4.059 						"/>
					</g>
				</g>
			</g>
		</g>
		<g>
			<g>
				<g>
					<g>
						<polygon fill="#3A3330" points="17.354,7.406 25.392,55.242 60.768,55.445 67.404,59.932 0.137,59.669 12.466,33.399 0,7.406 
													"/>
					</g>
				</g>
			</g>
		</g>
		<g>
			<g>
				<g>
					<g>
						<polygon fill="#3A3330" points="241.402,7.406 233.36,55.242 197.987,55.445 191.354,59.932 258.623,59.669 246.293,33.399 
							258.76,7.406 						"/>
					</g>
				</g>
			</g>
		</g>
	</g>
	<g>
		<g>
			<g>
				<path fill="#3A3330" d="M68.498,68.88c0,0.866-0.7,1.559-1.558,1.559c-0.865,0-1.563-0.692-1.563-1.559
					c0-0.859,0.698-1.557,1.563-1.557C67.798,67.323,68.498,68.021,68.498,68.88z"/>
			</g>
		</g>
		<g>
			<g>
				<path fill="#3A3330" d="M79.576,68.88c0,0.866-0.698,1.559-1.556,1.559c-0.854,0-1.558-0.692-1.558-1.559
					c0-0.859,0.704-1.557,1.558-1.557C78.878,67.323,79.576,68.021,79.576,68.88z"/>
			</g>
		</g>
		<g>
			<g>
				<path fill="#3A3330" d="M90.665,68.88c0,0.866-0.701,1.559-1.562,1.559c-0.859,0-1.559-0.692-1.559-1.559
					c0-0.859,0.699-1.557,1.559-1.557C89.964,67.323,90.665,68.021,90.665,68.88z"/>
			</g>
		</g>
		<g>
			<g>
				<path fill="#3A3330" d="M101.746,68.88c0,0.866-0.697,1.559-1.563,1.559c-0.852,0-1.552-0.692-1.552-1.559
					c0-0.859,0.7-1.557,1.552-1.557C101.049,67.323,101.746,68.021,101.746,68.88z"/>
			</g>
		</g>
		<g>
			<g>
				<path fill="#3A3330" d="M112.831,68.88c0,0.866-0.698,1.559-1.563,1.559c-0.858,0-1.557-0.692-1.557-1.559
					c0-0.859,0.698-1.557,1.557-1.557C112.133,67.323,112.831,68.021,112.831,68.88z"/>
			</g>
		</g>
		<g>
			<g>
				<path fill="#3A3330" d="M123.919,68.88c0,0.866-0.704,1.559-1.563,1.559c-0.86,0-1.561-0.692-1.561-1.559
					c0-0.859,0.7-1.557,1.561-1.557C123.215,67.323,123.919,68.021,123.919,68.88z"/>
			</g>
		</g>
		<g>
			<g>
				<path fill="#3A3330" d="M134.868,68.88c0,0.866-0.696,1.559-1.55,1.559c-0.87,0-1.563-0.692-1.563-1.559
					c0-0.859,0.692-1.557,1.563-1.557C134.172,67.323,134.868,68.021,134.868,68.88z"/>
			</g>
		</g>
		<g>
			<g>
				<path fill="#3A3330" d="M145.957,68.88c0,0.866-0.7,1.559-1.561,1.559c-0.863,0-1.563-0.692-1.563-1.559
					c0-0.859,0.7-1.557,1.563-1.557C145.257,67.323,145.957,68.021,145.957,68.88z"/>
			</g>
		</g>
		<g>
			<g>
				<path fill="#3A3330" d="M157.034,68.88c0,0.866-0.692,1.559-1.558,1.559c-0.859,0-1.558-0.692-1.558-1.559
					c0-0.859,0.698-1.557,1.558-1.557C156.342,67.323,157.034,68.021,157.034,68.88z"/>
			</g>
		</g>
		<g>
			<g>
				<path fill="#3A3330" d="M168.115,68.88c0,0.866-0.693,1.559-1.56,1.559c-0.852,0-1.557-0.692-1.557-1.559
					c0-0.859,0.705-1.557,1.557-1.557C167.422,67.323,168.115,68.021,168.115,68.88z"/>
			</g>
		</g>
		<g>
			<g>
				<path fill="#3A3330" d="M179.205,68.88c0,0.866-0.7,1.559-1.557,1.559c-0.867,0-1.564-0.692-1.564-1.559
					c0-0.859,0.697-1.557,1.564-1.557C178.505,67.323,179.205,68.021,179.205,68.88z"/>
			</g>
		</g>
		<g>
			<g>
				<path fill="#3A3330" d="M190.288,68.88c0,0.866-0.695,1.559-1.561,1.559c-0.856,0-1.558-0.692-1.558-1.559
					c0-0.859,0.701-1.557,1.558-1.557C189.593,67.323,190.288,68.021,190.288,68.88z"/>
			</g>
		</g>
	</g>
</g>
</svg>
