<?xml version="1.0" encoding="UTF-8" standalone="no"?>
<!-- Generator: Adobe Illustrator 16.0.0, SVG Export Plug-In . SVG Version: 6.00 Build 0)  -->

<svg
   xmlns:dc="http://purl.org/dc/elements/1.1/"
   xmlns:cc="http://creativecommons.org/ns#"
   xmlns:rdf="http://www.w3.org/1999/02/22-rdf-syntax-ns#"
   xmlns:svg="http://www.w3.org/2000/svg"
   xmlns="http://www.w3.org/2000/svg"
   xmlns:sodipodi="http://sodipodi.sourceforge.net/DTD/sodipodi-0.dtd"
   xmlns:inkscape="http://www.inkscape.org/namespaces/inkscape"
   version="1.1"
   id="Layer_1"
   x="0px"
   y="0px"
   width="800px"
   height="600px"
   viewBox="0 0 800 600"
   enable-background="new 0 0 800 600"
   xml:space="preserve"
   inkscape:version="0.48.4 r9939"
   sodipodi:docname="Ring2.svg"><metadata
     id="metadata3030"><rdf:RDF><cc:Work
         rdf:about=""><dc:format>image/svg+xml</dc:format><dc:type
           rdf:resource="http://purl.org/dc/dcmitype/StillImage" /><dc:title></dc:title></cc:Work></rdf:RDF></metadata><defs
     id="defs3028" /><sodipodi:namedview
     pagecolor="#ffffff"
     bordercolor="#666666"
     borderopacity="1"
     objecttolerance="10"
     gridtolerance="10"
     guidetolerance="10"
     inkscape:pageopacity="0"
     inkscape:pageshadow="2"
     inkscape:window-width="1366"
     inkscape:window-height="708"
     id="namedview3026"
     showgrid="false"
     inkscape:zoom="0.91"
     inkscape:cx="400"
     inkscape:cy="317.69674"
     inkscape:window-x="534"
     inkscape:window-y="1080"
     inkscape:window-maximized="1"
     inkscape:current-layer="g2986" /><g
     id="g2986"
     transform="matrix(1,0,0,0.98736281,0,7.5943694)"><path
       stroke-miterlimit="10"
       d="m 658.197,296.142 c 0,142.785 -115.747,258.534 -258.535,258.534 -142.783,0 -258.533,-115.749 -258.533,-258.534 0,-142.785 115.75,-258.535 258.533,-258.535 142.788,0 258.535,115.75 258.535,258.535 z"
       id="path3024"
       style="fill:#cfbf84;fill-opacity:1;stroke:#000000;stroke-width:5.05870008;stroke-miterlimit:10"
       inkscape:connector-curvature="0" /><circle
       stroke-miterlimit="10"
       cx="398.62299"
       cy="296.60199"
       r="292.995"
       id="circle2988"
       d="m 691.61798,296.60199 c 0,161.81667 -131.17833,292.99499 -292.99499,292.99499 -161.81667,0 -292.995,-131.17832 -292.995,-292.99499 0,-161.81667 131.17833,-292.9949954 292.995,-292.9949954 161.81666,0 292.99499,131.1783254 292.99499,292.9949954 z"
       sodipodi:cx="398.62299"
       sodipodi:cy="296.60199"
       sodipodi:rx="292.995"
       sodipodi:ry="292.995"
       style="fill:none;stroke:#000000;stroke-width:22.7140007;stroke-miterlimit:10" /><g
       id="g2990"><g
         id="g2992"><g
           id="g2994"><g
             id="g2996"><g
               id="g2998"><g
                 id="g3000"><g
                   id="g3002"><g
                     id="g3004"><polygon
                       points="110.47,353.648 110.47,246.352 205.636,246.352 192.244,300.106 205.636,353.648 "
                       id="polygon3006" /></g></g></g></g></g></g></g><g
         id="g3008"><g
           id="g3010"><g
             id="g3012"><g
               id="g3014"><g
                 id="g3016"><g
                   id="g3018"><g
                     id="g3020"><polygon
                       points="689.529,353.648 689.529,246.352 594.359,246.352 607.75,300.106 594.359,353.648 "
                       id="polygon3022" /></g></g></g></g></g></g></g></g><path
       style="fill:#cfbf84;fill-opacity:1;stroke:#81d2fe;stroke-width:1.09890115;stroke-opacity:0.55228493"
       d="m 375.09934,577.01599 c -23.4113,-2.11168 -52.74954,-8.5213 -73.05631,-15.96081 -15.83734,-5.80211 -44.19422,-20.03222 -57.9771,-29.09419 -56.13515,-36.90774 -96.07597,-90.27004 -115.16964,-153.87058 -2.08052,-6.93018 -4.11506,-14.45473 -4.52119,-16.72121 l -0.73843,-4.12088 10.46842,0 10.46842,0 0.65189,3.02198 c 3.49417,16.19798 14.72189,45.18601 24.3309,62.81815 33.57817,61.61457 95.01149,109.3399 162.76151,126.44354 45.11383,11.38908 87.96832,11.5966 132.10252,0.6397 63.08397,-15.66143 118.65172,-55.08189 154.99633,-109.95634 13.19876,-19.92798 26.3921,-49.09185 32.4376,-71.7033 l 3.01153,-11.26373 9.16052,0 c 11.0224,0 10.69296,-1.11164 5.26589,17.76926 -27.42995,95.42933 -103.43123,169.05112 -200.0885,193.82402 -28.62223,7.33577 -66.71606,10.64481 -94.10436,8.17439 l 0,0 z"
       id="path5557"
       inkscape:connector-curvature="0"
       transform="matrix(1,0,0,1.0127989,0,-7.6915692)" /><path
       style="fill:#cfbf84;fill-opacity:1;stroke:#81d2fe;stroke-width:1.09890115;stroke-opacity:0.55228493"
       d="m 122.63736,248.54563 c 0,-1.20548 1.69737,-8.76525 3.77192,-16.79949 19.37194,-75.02276 71.35936,-140.165493 140.63971,-176.228316 30.35524,-15.80096 60.01146,-25.206638 95.69826,-30.351379 13.03141,-1.878655 58.3671,-1.881535 71.42857,-0.0045 33.13608,4.761816 60.7211,13.157406 89.01099,27.09078 29.86619,14.709729 52.56415,30.851113 75.16752,53.454495 39.2479,39.2479 63.52901,84.35606 76.3967,141.92575 l 0.67545,3.02198 -9.31923,0 -9.31924,0 -1.09215,-4.12088 c -0.6007,-2.26648 -1.59628,-6.40474 -2.21243,-9.19614 -4.59957,-20.83782 -17.295,-50.65476 -30.92405,-72.62931 C 603.9571,134.71552 574.91287,104.89233 545.33695,85.415065 513.13476,64.208266 477.55288,50.620343 438.02198,44.433879 c -17.71272,-2.771984 -59.12027,-2.78 -76.92308,-0.01489 -27.8536,4.326186 -52.15474,11.95091 -77.47253,24.307784 -25.81925,12.601618 -46.21663,26.799888 -66.34725,46.183167 -34.89025,33.59497 -59.62221,76.18482 -71.48868,123.10761 l -3.05696,12.08791 -10.04806,0.31597 c -9.41184,0.29595 -10.04806,0.17717 -10.04806,-1.8758 z"
       id="path5559"
       inkscape:connector-curvature="0"
       transform="matrix(1,0,0,1.0127989,0,-7.6915692)" /></g></svg>